<?xml version="1.0" encoding="UTF-8"?>
<svg width="24px" height="24px" viewBox="0 0 24 24" version="1.1" xmlns="http://www.w3.org/2000/svg" xmlns:xlink="http://www.w3.org/1999/xlink">
    <title>Group 19备份 2</title>
    <defs>
        <linearGradient x1="50%" y1="0%" x2="50%" y2="95.6533653%" id="linearGradient-1">
            <stop stop-color="#E6E6E6" offset="0%"></stop>
            <stop stop-color="#E3E3E3" offset="100%"></stop>
        </linearGradient>
        <rect id="path-2" x="0" y="0" width="24" height="21.6" rx="6"></rect>
    </defs>
    <g id="页面-1" stroke="none" stroke-width="1" fill="none" fill-rule="evenodd">
        <g id="Group-19备份-2">
            <g id="flip-adjustment-normal" opacity="0.971" transform="translate(0.000000, 1.000000)">
                <g id="rect34212">
                    <use fill-opacity="0.08" fill="#000000" xlink:href="#path-2"></use>
                    <rect stroke-opacity="0.03" stroke="#000000" stroke-width="1" stroke-linejoin="square" fill="url(#linearGradient-1)" x="0.5" y="0.5" width="23" height="20.6" rx="6"></rect>
                </g>
                <g id="编组-4" transform="translate(6.000000, 5.000000)">
                    <rect id="矩形" stroke="#536076" x="0.5" y="0.5" width="11" height="11" rx="4"></rect>
                    <path d="M3.6,7.4 L2.9,7.4 L2.9,9.1 L4.6,9.1 L4.6,8.4 L3.6,8.4 L3.6,7.4 Z M9.1,7.4 L8.4,7.4 L8.4,8.4 L7.4,8.4 L7.4,9.1 L9.1,9.1 L9.1,7.4 Z M9.1,2.9 L7.4,2.9 L7.4,3.6 L8.4,3.6 L8.4,4.6 L9.1,4.6 L9.1,2.9 Z M4.6,2.9 L2.9,2.9 L2.9,4.6 L3.6,4.6 L3.6,3.6 L4.6,3.6 L4.6,2.9 Z" id="形状结合" stroke="#576479" stroke-width="0.2" fill="#576479"></path>
                </g>
            </g>
            <rect id="矩形" x="0" y="0" width="24" height="24"></rect>
        </g>
    </g>
</svg>