<?xml version="1.0" encoding="UTF-8"?>
<svg width="44px" height="44px" viewBox="0 0 44 44" version="1.1" xmlns="http://www.w3.org/2000/svg" xmlns:xlink="http://www.w3.org/1999/xlink">
    <!-- Generator: Sketch 58 (84663) - https://sketch.com -->
    <title>联系人icon</title>
    <desc>Created with Sketch.</desc>
    <defs>
        <linearGradient x1="50%" y1="0%" x2="50%" y2="95.6533653%" id="linearGradient-1">
            <stop stop-color="#E6E6E6" offset="0%"></stop>
            <stop stop-color="#E3E3E3" offset="100%"></stop>
        </linearGradient>
        <rect id="path-2" x="0" y="0" width="36" height="36" rx="8"></rect>
        <filter x="-19.4%" y="-13.9%" width="138.9%" height="138.9%" filterUnits="objectBoundingBox" id="filter-3">
            <feOffset dx="0" dy="2" in="SourceAlpha" result="shadowOffsetOuter1"></feOffset>
            <feGaussianBlur stdDeviation="2" in="shadowOffsetOuter1" result="shadowBlurOuter1"></feGaussianBlur>
            <feComposite in="shadowBlurOuter1" in2="SourceAlpha" operator="out" result="shadowBlurOuter1"></feComposite>
            <feColorMatrix values="0 0 0 0 0   0 0 0 0 0   0 0 0 0 0  0 0 0 0.05 0" type="matrix" in="shadowBlurOuter1"></feColorMatrix>
        </filter>
    </defs>
    <g id="组件" stroke="none" stroke-width="1" fill="none" fill-rule="evenodd">
        <g id="工具栏" transform="translate(-132.000000, -5.000000)">
            <g id="联系人icon">
                <g transform="translate(136.000000, 7.000000)">
                    <g id="矩形">
                        <use fill="black" fill-opacity="1" filter="url(#filter-3)" xlink:href="#path-2"></use>
                        <use fill-opacity="0.08" fill="#000000" fill-rule="evenodd" xlink:href="#path-2"></use>
                        <rect stroke-opacity="0.03" stroke="#000000" stroke-width="1" stroke-linejoin="square" fill="url(#linearGradient-1)" fill-rule="evenodd" x="0.5" y="0.5" width="35" height="35" rx="8"></rect>
                    </g>
                    <g id="联系人" transform="translate(8.000000, 9.000000)" fill="#414D68" fill-rule="nonzero">
                        <path d="M9.0016724,0.5 L9.2509661,0.510016578 C9.89476055,0.555734661 10.6622539,0.756587789 11.3658199,1.18946201 C12.5861336,1.94026913 13.3084713,3.22494209 13.3084713,5.08872119 L13.3085643,7.77768086 C13.3020303,8.08289585 13.2701433,8.42959828 13.1968732,8.77392692 C13.1267042,9.10368202 13.0241427,9.39312225 12.8843049,9.62219424 C12.7744535,9.81362075 12.6501494,9.99861105 12.5049922,10.1910624 L12.3526469,10.3865154 L11.7383338,11.1233456 L11.5940261,11.3150989 C11.5799468,11.3316785 11.5704071,11.3392995 11.5647374,11.3360582 L11.5589294,11.3232884 L11.5793944,11.4301459 C11.7269422,12.040461 12.4251691,12.6899065 13.7787789,13.5637163 L15.2496585,14.484426 L15.6034953,14.7153572 C15.9963981,14.9801876 16.2824869,15.2037177 16.4980276,15.4239307 C17.2979528,16.2400543 17.560737,17.0921488 17.4936985,17.8267167 L17.4743604,17.9822693 L17.4546861,18.0858508 L17.3366718,18.5 L1.04316017,18.5 L0.585854211,18.202787 C0.543368828,18.172026 0.538194299,18.1625151 0.548654408,18.15856 L0.567323887,18.1554761 L0.543727875,18.0702685 L0.501020155,17.8524894 C0.374930966,17.0331474 0.729206951,16.2158842 1.51070465,15.422281 C1.72762394,15.2020017 2.01540524,14.9786089 2.41076639,14.7139082 L2.61758194,14.5779387 L4.45910097,13.4251172 C5.76182688,12.5685871 6.39993495,11.9347966 6.47720762,11.3832762 L6.4366364,11.3137638 C6.42723704,11.2990699 6.41607937,11.2821667 6.40303553,11.2631683 L6.3011158,11.1249492 L5.68405603,10.3890131 C5.46930951,10.123117 5.29588502,9.8788426 5.14042935,9.60857466 C4.80401223,8.97761736 4.68181689,8.33420589 4.68503258,7.77441683 L4.69451323,7.53357858 L4.69487347,5.08790538 C4.69487347,3.18596305 5.44648978,1.88911964 6.70761261,1.1468679 C7.49968832,0.680680494 8.36844181,0.5 9.0016724,0.5 Z M8.99911295,1.50000144 C8.52928807,1.50052903 7.83060218,1.64626459 7.21484331,2.00867821 C6.25714223,2.57234678 5.69487347,3.54248876 5.69487345,5.08774901 L5.69240359,7.59826478 L5.6851825,7.79873204 C5.68641926,8.20294448 5.77827425,8.67947886 6.01483238,9.12365512 C6.10348409,9.27746976 6.20693654,9.43042255 6.33094542,9.59364532 L6.4620196,9.76070369 L7.08819331,10.5080951 C7.3454912,10.8363954 7.47720762,11.0874312 7.47284765,11.4491622 C7.34024063,12.4467246 6.58106027,13.227004 5.04230416,14.2391081 L4.3466237,14.6802285 C4.14346967,14.8054295 3.81079091,15.0105665 3.53996616,15.179073 L2.97773185,15.5378012 C2.62951684,15.770568 2.38545121,15.9591934 2.22322477,16.1239326 C1.73221617,16.622547 1.49476721,17.0715242 1.48115751,17.5000014 L16.4999258,17.5000014 C16.4706105,17.0914344 16.2689343,16.6188024 15.7836247,16.1236652 C15.6223564,15.9589011 15.3798694,15.7702629 15.0339985,15.5375019 L14.8523451,15.4173508 L13.2307754,14.4004193 C11.5344732,13.307257 10.7054267,12.4947909 10.5626825,11.3832762 C10.5626825,11.0880048 10.6936752,10.8369818 10.9495932,10.5086194 L11.1639957,10.2488623 C11.2902071,10.0983999 11.4370368,9.9248203 11.5220424,9.82239987 L11.7030975,9.5934915 C11.8265018,9.43004021 11.9305243,9.27519686 12.0237023,9.11308873 C12.1036234,8.98197599 12.1701835,8.79413561 12.2187723,8.56579555 C12.2770629,8.29186269 12.3032176,8.00335464 12.3087067,7.75416011 L12.3084713,5.08872119 C12.3084713,3.5732248 11.7671571,2.61050087 10.841801,2.04116867 C10.3016351,1.70882753 9.69363121,1.54804597 9.20371419,1.50922694 L8.99911295,1.50000144 Z M18.5833398,12.8 C18.8134549,12.8 19,12.9790833 19,13.1999937 L19,13.5999875 C19,13.7060757 18.9561095,13.8078205 18.87797,13.8828379 C18.7998305,13.9578553 18.6938484,14 18.5833398,14 L16.9166602,14 C16.8061516,14 16.7001695,13.9578553 16.62203,13.8828379 C16.5438905,13.8078205 16.5,13.7060757 16.5,13.5999875 L16.5,13.1999938 C16.5,12.9790833 16.6865451,12.8 16.9166602,12.8 L18.5833398,12.8 Z M18.63,10.4 C18.8341602,10.4 19,10.5791937 19,10.7999937 L19,11.1999875 C19,11.4207875 18.8333398,11.6 18.63,11.6 L16.0366602,11.6 C15.8325,11.6 15.6666602,11.4207875 15.6666602,11.1999875 L15.6666602,10.7999937 C15.6666602,10.5791937 15.8333398,10.4 16.0366602,10.4 L18.63,10.4 Z M18.615,8 C18.8275,8 19,8.17919375 19,8.39999375 L19,8.7999875 C19,9.02159375 18.8275,9.2 18.615,9.2 L14.3841602,9.2 C14.1725,9.2 14,9.02159375 14,8.7999875 L14,8.39999375 C14,8.17919375 14.1725,8 14.3841797,8 L18.615,8 Z" id="dcc_contact_icon"></path>
                    </g>
                </g>
            </g>
        </g>
    </g>
</svg>