<?xml version="1.0" encoding="UTF-8"?>
<svg width="44px" height="44px" viewBox="0 0 44 44" version="1.1" xmlns="http://www.w3.org/2000/svg" xmlns:xlink="http://www.w3.org/1999/xlink">
    <!-- Generator: Sketch 58 (84663) - https://sketch.com -->
    <title>写邮件icon</title>
    <desc>Created with Sketch.</desc>
    <defs>
        <linearGradient x1="50%" y1="0%" x2="50%" y2="95.6533653%" id="linearGradient-1">
            <stop stop-color="#E6E6E6" offset="0%"></stop>
            <stop stop-color="#E3E3E3" offset="100%"></stop>
        </linearGradient>
        <rect id="path-2" x="0" y="0" width="36" height="36" rx="8"></rect>
        <filter x="-19.4%" y="-13.9%" width="138.9%" height="138.9%" filterUnits="objectBoundingBox" id="filter-3">
            <feOffset dx="0" dy="2" in="SourceAlpha" result="shadowOffsetOuter1"></feOffset>
            <feGaussianBlur stdDeviation="2" in="shadowOffsetOuter1" result="shadowBlurOuter1"></feGaussianBlur>
            <feComposite in="shadowBlurOuter1" in2="SourceAlpha" operator="out" result="shadowBlurOuter1"></feComposite>
            <feColorMatrix values="0 0 0 0 0   0 0 0 0 0   0 0 0 0 0  0 0 0 0.05 0" type="matrix" in="shadowBlurOuter1"></feColorMatrix>
        </filter>
    </defs>
    <g id="组件" stroke="none" stroke-width="1" fill="none" fill-rule="evenodd">
        <g id="工具栏" transform="translate(-66.000000, -5.000000)">
            <g id="写邮件icon">
                <g transform="translate(70.000000, 7.000000)">
                    <g id="矩形">
                        <use fill="black" fill-opacity="1" filter="url(#filter-3)" xlink:href="#path-2"></use>
                        <use fill-opacity="0.08" fill="#000000" fill-rule="evenodd" xlink:href="#path-2"></use>
                        <rect stroke-opacity="0.03" stroke="#000000" stroke-width="1" stroke-linejoin="square" fill="url(#linearGradient-1)" fill-rule="evenodd" x="0.5" y="0.5" width="35" height="35" rx="8"></rect>
                    </g>
                    <g id="新邮件" transform="translate(10.000000, 9.000000)" fill="#414D68" fill-rule="nonzero">
                        <path d="M7.61508986,2 L7.61508986,3 L1,3 L1,17 L14,17 L14,10.1827424 L15,10.1827424 L15,18 L-8.48210391e-14,18 L-8.48210391e-14,2 L7.61508986,2 Z M14.5675986,0.841708755 L17.3960257,3.67013588 L6.31801948,14.7481421 L3.01818784,15.2195466 L3.48959236,11.919715 L14.5675986,0.841708755 Z M14.5675986,2.25592232 L6.229,10.5937088 L7.02512627,11.3890873 L6.31801948,12.0961941 L5.522,11.3007088 L4.4324014,12.3911195 L4.19669914,14.0410353 L5.84661496,13.8053331 L15.9818122,3.67013588 L14.5675986,2.25592232 Z" id="形状结合"></path>
                    </g>
                </g>
            </g>
        </g>
    </g>
</svg>